<svg xmlns="http://www.w3.org/2000/svg" viewBox="0 0 32 32"><path fill="#bdbdbd" d="M6,27.94H6A6.94,6.94,0,0,1,12.94,21h6.12A6.94,6.94,0,0,1,26,27.94h0A1.07,1.07,0,0,1,24.94,29H7.06A1.07,1.07,0,0,1,6,27.94Z"/><circle cx="16" cy="10" r="7" fill="#bdbdbd"/><path fill="#424242" d="M16 11.5a1 1 0 0 1-1-1A1.5 1.5 0 0 1 16.5 9a.5.5 0 0 0 0-1H15a1 1 0 0 1 0-2h1.5a2.5 2.5 0 0 1 .38 5A1 1 0 0 1 16 11.5zM16 14a1 1 0 0 1-.38-.08 1.15 1.15 0 0 1-.33-.21A1 1 0 0 1 15 13a1 1 0 1 1 2 0 1 1 0 0 1-.08.38.9.9 0 0 1-.54.54A1 1 0 0 1 16 14z"/></svg>